<svg xmlns="http://www.w3.org/2000/svg" viewBox="0 0 24 24"><path fill="#2C2E2F" d="M19.063 15H21v-4.5a.5.5 0 1 1 1 0v5a.5.5 0 0 1-.5.5h-2.437v1.818c0 .646-.504 1.182-1.142 1.182H3.142C2.505 19 2 18.464 2 17.818V8.26c0-.647.505-1.183 1.142-1.183h14.779c.638 0 1.142.536 1.142 1.183v.238H21V5H5.293v.782a.5.5 0 1 1-1 0V5a1 1 0 0 1 1-1H21a1 1 0 0 1 1 1v3.999a.5.5 0 0 1-.5.5h-2.937a.5.5 0 0 1-.5-.5V8.26c0-.108-.07-.183-.142-.183H3.142c-.071 0-.142.075-.142.183v9.557c0 .107.071.182.142.182h14.779c.072 0 .142-.075.142-.182v-6.633H4.828a.5.5 0 0 1 0-1h13.735a.5.5 0 0 1 .5.5V15zm-3.968 1.486h-1.189c-.511 0-.893-.448-.893-.964v-1.045c0-.516.382-.963.893-.963h1.189c.51 0 .891.447.891.963v1.045c0 .516-.38.964-.891.964zm-.082-2h-1.027v1.027h1.027v-1.027zM4.5 16a.5.5 0 1 1 0-1h7a.5.5 0 1 1 0 1h-7z"/></svg>